<?xml version="1.0" standalone="no"?>
<!DOCTYPE svg PUBLIC "-//W3C//DTD SVG 1.1//EN" "http://www.w3.org/Graphics/SVG/1.1/DTD/svg11.dtd" >
<!--
2016-5-24: Created with FontForge (http://fontforge.org)
-->
<svg xmlns="http://www.w3.org/2000/svg" xmlns:xlink="http://www.w3.org/1999/xlink" version="1.1">
<metadata>
Created by FontForge 20150913 at Tue May 24 17:21:08 2016
 By Latoni, Nathaniel
Copyright (c) 2016, Latoni, Nathaniel
</metadata>
<defs>
<font id="nba-custom" horiz-adv-x="512" >
  <font-face 
    font-family="nba-custom"
    font-weight="400"
    font-stretch="normal"
    units-per-em="512"
    panose-1="2 0 5 3 0 0 0 0 0 0"
    ascent="448"
    descent="-64"
    bbox="0 -64 512 448"
    underline-thickness="25.6"
    underline-position="-51.2"
    unicode-range="U+0020-F132"
  />
    <missing-glyph />
    <glyph glyph-name="space" unicode=" " horiz-adv-x="200" 
 />
    <glyph glyph-name="uniF10C" unicode="&#xf10c;" 
d="M30.6064 405.333c253.17 0 457.259 -182.442 462.763 -434.204c0.0712891 -3.49902 -70.3438 -4.22363 -70.4434 -0.697266c-5.48926 214.613 -178.02 363.193 -394.069 363.193l-12.4727 -1.05273v72.7607h14.2227zM38.8125 246.912
c174.578 0 293.233 -101.519 298.382 -274.858c0.0859375 -3.2002 -80.6963 -3.72656 -80.8105 -0.697266c-4.75 134.471 -81.9336 204.7 -217.614 204.7c-4.4375 0 -16.2842 2.38965 -20.6787 2.13379l0.739258 70.9824
c4.16699 0.142578 15.8154 -2.26074 19.9824 -2.26074zM57.0312 51.9678c-23.083 0 -41.8135 -18.7451 -41.8135 -41.8271c0 -23.083 18.7305 -41.7988 41.8135 -41.7988c23.0967 0 41.7852 18.7158 41.7852 41.7988c0 23.082 -18.6885 41.8271 -41.7852 41.8271z" />
    <glyph glyph-name="uniF100" unicode="&#xf100;" 
d="M256.782 183.851l145.138 173.44c17.8203 21.418 46.6914 21.418 64.498 0l16.0713 -19.3145c17.8203 -21.1904 17.8203 -55.751 0 -76.9424l-177.309 -212.109l-16.0566 -19.3145c-17.9346 -21.1904 -46.792 -21.1904 -64.6123 0l-193.337 231.424
c-17.9336 21.1914 -17.9336 55.752 0 76.9424l16.0576 19.3281c17.8203 21.4189 46.6768 21.4189 64.4834 0z" />
    <glyph glyph-name="uniF103" unicode="&#xf103;" 
d="M256.782 203.179l-145.166 -173.426c-17.8203 -21.3623 -46.6777 -21.3623 -64.498 0l-16.0566 19.3135c-17.8203 21.1768 -17.8203 55.751 0 76.9854l177.166 212.039l16.1846 19.3701c17.9199 21.1914 46.7773 21.1914 64.5977 0l193.337 -231.409
c17.9629 -21.2344 17.9629 -55.8086 0 -76.9854l-16.043 -19.3135c-17.8057 -21.3623 -46.7051 -21.3623 -64.4971 0z" />
    <glyph glyph-name="uniF117" unicode="&#xf117;" 
d="M85.959 285.938v51.3145h345.031v-51.3145h-345.031zM85.959 164.167v51.3135h345.031v-51.3135h-345.031zM85.959 42.3818v51.3145h345.031v-51.3145h-345.031z" />
    <glyph glyph-name="uniF119" unicode="&#xf119;" 
d="M0 192v256h256h256v-256v-256h-256h-256v256zM338.794 408.381c-22.3496 1.11719 -146.083 1.11719 -168.635 -0.101562c-19.4033 -1.01562 -29.6641 -2.43848 -41.9561 -5.58691c-21.0283 -5.48633 -38.6035 -15.3398 -53.0283 -29.8672
c-10.2607 -10.2598 -17.0664 -20.2158 -22.959 -33.4219c-11.7842 -26.3115 -13.6123 -46.2227 -13.6123 -147.403s1.82812 -121.092 13.6123 -147.403c5.89258 -13.2061 12.6982 -23.1621 22.959 -33.4219c14.4248 -14.5273 32 -24.3809 52.9268 -29.8672
c21.2314 -5.48535 44.292 -6.7041 127.898 -6.7041s106.667 1.21875 127.898 6.7041c20.9268 5.48633 38.502 15.3398 52.9268 29.8672c10.2607 10.2598 17.0664 20.2158 22.959 33.4219c11.7842 26.3115 13.6123 46.2227 13.6123 147.403
s-1.82812 121.092 -13.6123 147.403c-5.89258 13.2061 -12.6982 23.1621 -22.959 33.4219c-14.4248 14.5273 -32 24.3809 -52.9268 29.8672c-12.7998 3.25 -21.8408 4.46973 -45.1045 5.68848zM166.299 368.762c18.3867 1.21875 180.927 0.507812 190.78 -0.914062
c13.5117 -1.93066 23.7715 -4.97754 33.8291 -9.85449c7.82227 -3.75781 10.9707 -6.09473 17.9805 -13.1045s9.34668 -10.1582 13.1045 -17.9805c5.2832 -10.8701 8.02637 -20.6221 9.95605 -35.4541c1.92969 -15.2383 1.92969 -183.67 0 -198.908
c-1.92969 -14.832 -4.67285 -24.584 -9.95605 -35.4541c-3.75781 -7.82227 -6.09473 -10.9707 -13.1045 -17.9805s-10.1582 -9.34668 -17.9805 -13.1045c-10.8701 -5.2832 -20.6221 -8.02637 -35.4541 -9.95605c-15.2383 -1.92969 -183.67 -1.92969 -198.908 0
c-14.832 1.92969 -24.584 4.67285 -35.4541 9.95605c-7.82227 3.75781 -10.9707 6.09473 -17.9805 13.1045s-9.34668 10.1582 -13.1045 17.9805c-5.2832 10.8701 -8.02637 20.6221 -9.95605 35.4541c-1.92969 15.2383 -1.92969 183.67 0 198.908
c3.14941 24.7871 9.75195 40.2285 22.8574 53.2314c15.2383 15.2383 32.7109 21.8418 63.3906 24.0762zM383.492 331.378c-5.18066 2.74316 -14.9336 3.35254 -20.3174 1.32031c-17.8799 -6.60254 -22.959 -29.7646 -9.5498 -43.0732
c7.92383 -7.92383 20.1143 -9.95508 29.9688 -4.87598c19.2002 9.85449 19.2002 36.7744 -0.101562 46.6289zM273.574 302.223c-10.5645 1.82812 -25.5996 1.82812 -35.9619 -0.101562c-48.0508 -8.63574 -83.4023 -44.1914 -91.835 -92.2422
c-6.09473 -34.9453 6.80664 -73.5488 32.7119 -98.2344c48.5586 -46.3242 125.866 -40.3301 166.399 12.6982c18.2861 24.0762 26.4131 56.3809 21.334 85.5361c-8.53418 48.458 -43.9873 83.9111 -92.6484 92.3438zM242.286 263.111
c2.23438 0.507812 9.54883 0.8125 16.2539 0.609375c9.75195 -0.304688 13.7139 -0.914062 19.5049 -2.94629c22.5518 -7.82227 38.7041 -23.873 46.8311 -46.7295c2.33691 -6.60352 2.6416 -8.83887 2.6416 -22.0449s-0.304688 -15.4414 -2.6416 -22.0449
c-8.12695 -22.7549 -24.0762 -38.7041 -46.8311 -46.8311c-6.60352 -2.33691 -8.83887 -2.6416 -22.0449 -2.6416s-15.4414 0.304688 -22.0449 2.6416c-22.7549 8.12695 -38.7041 24.0762 -46.8311 46.8311c-2.33691 6.60352 -2.6416 8.83887 -2.6416 22.0449
s0.304688 15.4414 2.6416 22.0449c9.14258 25.498 29.3584 43.5801 55.1621 49.0664z" />
    <glyph glyph-name="uniF12B" unicode="&#xf12b;" 
d="M298.816 154.482l-27.8379 27.8389l11.1748 12.9385s8.2334 10.5869 -2.35254 22.3496c-10.5869 11.7627 -19.4082 21.1738 -45.2871 44.6982c-25.8789 23.5254 -42.3467 5.88184 -42.3467 5.88184s-85.8682 -89.3975 -109.394 -110.57
s-10.5869 -32.3477 -10.5869 -32.3477s33.9336 -34.8877 51.7568 -53.5205c12.9395 -13.5273 28.8193 -4.70508 28.8193 -4.70508l51.9521 49.4043l28.0342 -27.0547s-18.8203 -21.1729 -55.873 -53.5205c-37.0527 -32.3467 -63.5186 -8.2334 -63.5186 -8.2334
s-54.6963 51.7559 -80.5752 80.5742s2.94043 59.4023 2.94043 59.4023s99.5439 102.18 134.096 135.271c41.7568 39.9941 74.1055 5.88184 74.1055 5.88184s35.2881 -32.3477 74.6934 -70.5771s-19.8008 -83.7119 -19.8008 -83.7119zM291.188 305.966l52.1875 47.584
s27.6289 27.6279 55.2578 0.766602l86.7236 -85.1885s19.9551 -21.4893 -9.20898 -54.4902c-26.749 -30.2686 -144.003 -145.239 -144.003 -145.239s-24.3096 -24.7012 -57.6377 10.5869l-83.5146 84.2998s-19.2129 19.2129 19.6045 57.6377
c6.11133 6.0498 10.9785 10.9785 10.9785 10.9785l29.0156 -28.2314s-19.0166 -16.4668 -5.48926 -31.1709s53.5205 -52.9326 53.5205 -52.9326s14.7031 -14.7041 41.1699 9.99805c26.4658 24.7012 94.6914 94.1025 94.6914 94.1025s17.3291 19.8086 -2.08008 42.1582
c-19.4082 22.3486 -46.8154 43.7451 -46.8154 43.7451s-15.8945 13.6113 -35.3037 -3.83691l-29.1641 -27.6289z" />
    <glyph glyph-name="uniF128" unicode="&#xf128;" 
d="M476.487 322.446c-16.2275 -6.82715 -33.6641 -11.4492 -52.0391 -13.54c18.7021 10.6533 33.0947 27.4775 39.8789 47.4883c-17.5645 -9.79883 -36.8926 -16.9668 -57.5713 -20.8066c-16.5127 16.6826 -40.0361 27.1074 -66.1055 27.1074
c-50.0332 0 -90.6094 -38.4141 -90.6094 -85.8311c0 -6.74121 0.810547 -13.3125 2.36035 -19.5703c-75.292 3.57031 -142.051 37.7461 -186.724 89.6719c-7.79297 -12.6729 -12.2871 -27.4062 -12.2871 -43.1367c0 -29.8242 15.9707 -56.0635 40.291 -71.4521
c-14.8477 0.426758 -28.7998 4.30957 -41.0029 10.752c-0.0283203 -0.398438 -0.0283203 -0.767578 -0.0283203 -1.09473c0 -41.5723 31.2178 -76.3027 72.6758 -84.21c-7.6084 -1.94824 -15.5879 -3.01562 -23.8506 -3.01562c-5.8457 0 -11.5059 0.569336 -17.0527 1.55078
c11.5059 -34.1055 44.9854 -58.9375 84.6367 -59.6201c-30.9902 -23.0254 -70.0586 -36.7637 -112.526 -36.7637c-7.31055 0 -14.5205 0.425781 -21.6172 1.22266c40.0918 -24.377 87.708 -38.585 138.88 -38.585c166.642 0 257.749 130.83 257.749 244.267
c0 3.71191 -0.0996094 7.42383 -0.270508 11.1221c17.707 12.0889 33.1094 27.2207 45.2129 44.4443z" />
    <glyph glyph-name="uniF110" unicode="&#xf110;" 
d="M235.605 141.227v-111.744c0 -12.3447 10.0264 -22.3428 22.3428 -22.3428h89.3867v156.444h-89.3867c-12.3164 0 -22.3428 -10.0264 -22.3428 -22.3574zM190.905 387.072h-134.102c-12.3311 0 -22.3438 -10.0273 -22.3438 -22.3574v-335.246
c0 -12.3447 10.0127 -22.3438 22.3438 -22.3438h134.102c12.3447 0 22.3428 9.99902 22.3428 22.3438v335.26c0 12.3311 -9.99805 22.3438 -22.3428 22.3438zM459.079 387.072h-201.131c-12.3301 0 -22.3428 -10.0273 -22.3428 -22.3574v-156.444
c0 -12.3594 10.0264 -22.3574 22.3428 -22.3574h201.131c12.3594 0 22.3574 9.99805 22.3574 22.3574v156.444c0.0136719 12.3447 -9.99805 22.3574 -22.3574 22.3574zM459.079 163.556h-89.3867v-156.444h89.3867c12.3594 0 22.3574 10.0264 22.3574 22.3428v111.744
c0.0136719 12.373 -9.99805 22.3574 -22.3574 22.3574z" />
    <glyph glyph-name="uniF115" unicode="&#xf115;" 
d="M412.786 329.43h80.3838v-20.4375h-80.3838v-81.75h-20.1387v81.75h-69.7607v20.4375h69.7607v66.8721h20.1387v-66.8721zM277.575 396.601l-27.833 -20.4658h-39.3955c26.1543 -10.1826 40.0928 -41.1729 40.0928 -72.917
c0 -26.709 -14.5928 -49.6777 -35.1436 -65.9912c-20.0391 -15.9434 -23.8506 -22.5986 -23.8506 -36.1387c0 -11.5771 21.5186 -31.2178 32.7109 -39.2812c32.8682 -23.5947 43.4629 -45.5254 43.4629 -82.0771c0 -45.625 -43.4629 -91.0361 -122.14 -91.0361
c-68.9922 0 -127.232 28.5723 -127.232 74.1826c0 46.3369 53.1338 90.9941 122.141 90.9941c7.50879 0 14.4072 0.213867 21.5322 0.213867c-9.44336 9.35742 -16.8955 20.7637 -16.8955 34.9014c0 8.3623 2.63086 16.4258 6.31445 23.5938
c-3.79785 -0.297852 -7.59473 -0.369141 -11.5342 -0.369141c-56.7041 0 -94.6348 40.9883 -94.6348 91.7754c0 49.6924 52.4229 92.6152 108.132 92.6152h124.273zM234.141 87.5664c-5.21973 20.8779 -23.8086 31.2314 -49.707 49.5498
c-9.40039 3.07227 -19.8115 4.89258 -30.9043 5.03516c-47.7158 0.49707 -90.4395 -29.5684 -90.4395 -65.7207c0 -36.8643 34.46 -67.5137 82.1475 -67.5137c67.0576 0 90.4395 28.7861 90.4395 65.6504c0 4.4375 -0.541016 8.78906 -1.53613 12.999zM202.368 320.839
c-13.8525 42.6523 -48.2842 69.6748 -76.9277 60.374c-28.6436 -9.30176 -40.6338 -51.4141 -26.7812 -94.0518c13.8525 -42.6387 48.2852 -69.6748 76.9287 -60.374c28.6436 9.30176 40.6328 51.4141 26.7803 94.0518z" />
    <glyph glyph-name="uniF116" unicode="&#xf116;" 
d="M205.383 432.867h-161.905c-13.8672 0 -25.0879 -11.207 -25.0879 -25.0879v-168.718c0 -13.8389 11.2354 -25.0742 25.0879 -25.0742h161.905c13.8672 0 25.0879 11.2354 25.0879 25.0742v168.704c0 13.8945 -11.2207 25.1016 -25.0879 25.1016zM469.746 168.505
h-161.892c-13.8955 0 -25.1172 -11.2354 -25.1172 -25.0596v-161.948c0 -13.8672 11.2217 -25.0596 25.1172 -25.0596h161.892c13.8662 0 25.1162 11.1924 25.1162 25.0596v161.948c0 13.8242 -11.25 25.0596 -25.1162 25.0596zM205.383 168.505h-161.905
c-13.8672 0 -25.0879 -11.2354 -25.0879 -25.0596v-161.948c0 -13.8672 11.2354 -25.0596 25.0879 -25.0596h161.905c13.8672 0 25.0879 11.1924 25.0879 25.0596v161.948c0 13.8242 -11.2207 25.0596 -25.0879 25.0596zM469.746 432.867h-161.892
c-13.8955 0 -25.1172 -11.207 -25.1172 -25.0879v-168.718c0 -13.8389 11.2217 -25.0742 25.1172 -25.0742h161.892c13.8662 0 25.1162 11.2354 25.1162 25.0742v168.704c0 13.8945 -11.25 25.1016 -25.1162 25.1016z" />
    <glyph glyph-name="uniF111" unicode="&#xf111;" 
d="M466.147 329.088c7.70898 0 13.9668 -6.52832 13.9668 -14.5918v-262.343c0 -8.03613 -6.24414 -14.5645 -13.9521 -14.5645h-419.072c-7.70898 0 -13.9658 6.52832 -13.9658 14.5645v262.356c0 8.0498 6.25684 14.5781 13.9658 14.5781h97.7637
c0 24.1641 18.7734 43.7334 41.9131 43.7334h139.69c23.1533 0 41.8984 -19.5693 41.8984 -43.7334h97.792zM102.955 256.199c15.4307 0 27.9316 9.81348 27.9316 21.8877c0 12.0752 -12.501 21.8594 -27.9316 21.8594c-15.417 0 -27.9326 -9.78418 -27.9326 -21.8594
c0 -12.0742 12.5156 -21.8877 27.9326 -21.8877zM345.771 184.889v0c0 49.0957 -39.7939 88.8887 -88.8887 88.8887v0c-49.0947 0 -88.8887 -39.793 -88.8887 -88.8887v0c0 -49.0947 39.7939 -88.8887 88.8887 -88.8887v0c49.0947 0 88.8887 39.7939 88.8887 88.8887z" />
    <glyph glyph-name="uniF125" unicode="&#xf125;" 
d="M406.613 116.637l-88.7471 88.7891h54.5713c-3.22852 43.9893 -26.7803 85.6318 -67.1572 110.691c-67.0293 41.5293 -155.037 20.8779 -196.537 -46.0938c-41.5713 -67.0156 -20.9209 -155.022 46.0518 -196.565c61.3115 -38.0303 140.217 -23.9648 185.017 30.0654
l47.3027 -48.2275c-66.5879 -75.1641 -179.513 -93.7246 -267.775 -39.0537c-98.5889 61.1553 -128.953 190.634 -67.8262 289.223c61.1416 98.6172 190.621 128.953 289.237 67.8115c60.8428 -37.7168 95.7158 -101.419 99.0723 -167.865h55.083z" />
    <glyph glyph-name="uniF101" unicode="&#xf101;" 
d="M247.111 193.479l173.454 -144c21.3047 -17.6924 21.3047 -46.208 0 -64.0293l-19.2139 -15.8291c-21.4189 -17.7061 -55.8936 -17.7061 -77.1846 0l-212.024 175.759l-19.2148 16.0703c-21.3047 17.707 -21.3047 46.3223 0 64.0146l231.226 192.071
c21.29 17.6924 55.7646 17.6924 77.1836 0l19.2139 -16.0713c21.3057 -17.6777 21.3057 -46.3213 0 -64.0146z" />
    <glyph glyph-name="uniF107" unicode="&#xf107;" 
d="M334.919 271.047h99.5557l-178.674 -151.182l-178.631 151.182h99.5273v118.827h158.222v-63.0332v-55.7939zM413.668 155.051h78.4209v-158.977h-472.576v158.977h78.4502v-79.915h315.705v79.915z" />
    <glyph glyph-name="uniF12A" unicode="&#xf12a;" 
d="M256.745 133.714c-58.5342 -58.54 -116.455 -116.468 -174.021 -174.039c-20.1338 20.1348 -39.8936 39.8965 -59.8896 59.8916c57.4453 57.4424 115.371 115.365 173.446 173.438c-58.2373 58.2354 -116.161 116.159 -173.74 173.737
c20.1514 20.1611 39.9219 39.9414 59.8066 59.835c57.4736 -57.4756 115.496 -115.5 173.647 -173.654c58.4062 58.4092 116.348 116.353 174.193 174.199c20.0059 -20.0117 39.8096 -39.8213 59.7402 -59.7568c-57.7939 -57.7939 -115.726 -115.725 -173.761 -173.76
c58.2412 -58.2412 116.175 -116.175 173.842 -173.841l-59.6611 -59.6611c-57.5723 57.5752 -115.488 115.494 -173.604 173.611z" />
    <glyph glyph-name="uniF105" unicode="&#xf105;" 
d="M154.524 347.79c-9.37207 0 -17.0098 7.62305 -17.0098 17.0098v34.0342c0 9.37207 7.6377 17.0098 17.0098 17.0098c9.40137 0 17.0098 -7.62305 17.0098 -17.0098v-34.0342c0 -9.37207 -7.6084 -17.0098 -17.0098 -17.0098zM443.776 381.824
c18.7734 0 34.0332 -15.2461 34.0332 -34.0342v-340.295c0 -18.7451 -15.2598 -34.0342 -34.0332 -34.0342h-374.329c-18.7881 0 -34.0342 15.3037 -34.0342 34.0342v340.295c0 18.8018 15.2607 34.0342 34.0342 34.0342h33.4932v-32.4268
c0 -34.5889 52.6367 -36.1953 52.6367 -36.1953c51.043 0 50.5459 36.6934 50.5459 36.6934v31.9287h100.978l0.554688 -31.374c-1.02441 -37.7324 51.0293 -37.2344 51.0293 -37.2344c48.3838 1.0957 51.0576 37.7891 51.0576 37.7891v30.8193h34.0342zM137.515 7.48047
v68.0684h-68.0674v-68.0684h68.0674zM137.515 109.582v68.0537h-68.0674v-68.0537h68.0674zM137.515 211.669v68.0684h-68.0674v-68.0684h68.0674zM239.588 7.48047v68.0684h-68.0537v-68.0684h68.0537zM239.588 109.582v68.0537h-68.0537v-68.0537h68.0537z
M239.588 211.669v68.0684h-68.0537v-68.0684h68.0537zM341.688 7.48047v68.0684h-68.0527v-68.0684h68.0527zM341.688 109.582v68.0537h-68.0527v-68.0537h68.0527zM341.688 211.669v68.0684h-68.0527v-68.0684h68.0527zM443.776 7.48047v68.0684h-68.0537v-68.0684h68.0537
zM443.776 109.582v68.0537h-68.0537v-68.0537h68.0537zM443.776 211.669v68.0684h-68.0537v-68.0684h68.0537zM358.698 347.79c9.41602 0 17.0244 7.6377 17.0244 17.0098v34.0342c0 9.38672 -7.6084 17.0098 -17.0244 17.0098
c-9.35742 0 -16.9951 -7.6377 -16.9951 -17.0098v-34.0342c-0.0146484 -9.38672 7.62305 -17.0098 16.9951 -17.0098z" />
    <glyph glyph-name="uniF10E" unicode="&#xf10e;" 
d="M255.658 392.462c109.796 0 199.111 -89.3291 199.111 -199.11c0 -109.796 -89.3154 -199.111 -199.111 -199.111c-109.81 0 -199.11 89.3008 -199.11 199.111c0 109.781 89.3008 199.11 199.11 199.11zM255.658 420.906c-125.682 0 -227.555 -101.888 -227.555 -227.555
c0 -125.683 101.873 -227.556 227.555 -227.556c125.668 0 227.556 101.859 227.556 227.556c0 125.667 -101.888 227.555 -227.556 227.555zM156.061 292.708h79.0615l-30.166 -24.4062l38.002 -36.75l-25.1162 -25.0879l-36.7783 38.0303l-25.0029 -30.8193v79.0332z
M268.032 156.273l25.0879 25.0742l36.7783 -38.0156l24.7041 30.5059v-79.0322h-79.0469l30.4922 24.6895zM275.556 292.722h79.0469v-79.0469l-25.0166 30.8193l-36.7793 -38.0439l-25.0879 25.1016l38.002 36.7363zM217.529 181.361l25.1016 -25.0879l-38.0156 -36.7783
l30.4922 -24.6895h-79.0332v79.0322l24.6904 -30.4775z" />
    <glyph glyph-name="uniF129" unicode="&#xf129;" 
d="M471.225 295.467c5.19141 -35.1572 7.78027 -70.6416 7.78027 -106.069c0 -35.4844 -2.58887 -70.9551 -7.78027 -106.098c-4.52246 -24.334 -24.7178 -45.1982 -47.9424 -47.4736c-55.3818 -3.58398 -111.076 -6.69922 -166.6 -6.69922
c-55.5664 -0.0283203 -110.934 3.55566 -166.4 7.08301c-23.2959 2.24707 -43.4912 22.5273 -48.0137 46.9189c-5.14844 35.1855 -7.72266 70.7129 -7.72266 106.226c0 35.5273 2.57422 71.0547 7.72266 106.226c4.50879 24.4629 24.7178 42.5391 48.0137 44.8145
c55.4385 3.5127 110.862 6.3291 166.4 6.30078c55.5098 -0.0283203 111.189 -2.94434 166.6 -6.51367c23.2246 -2.24707 43.4199 -20.4092 47.9424 -44.7148zM344.362 190.819v0.12793c0 9.67188 -40.6328 30.5352 -72.2197 47.2891
c-30.9619 16.4551 -58.5537 31.5166 -65.0957 31.6592h-0.639648c-13.1982 0 -14.749 -10.8379 -14.749 -23.6943v-110.649c0 -13.0557 1.5791 -24.0215 15.3887 -23.666c6.55664 0.142578 34.1475 15.2041 65.0957 31.6445
c31.5869 16.7539 72.2197 37.6182 72.2197 47.2891z" />
    <glyph glyph-name="uniF11A" unicode="&#xf11a;" 
d="M164.063 447.391c4.46973 0.101562 50.6924 0.203125 102.604 0.101562c97.5234 -0.304688 106.057 -0.609375 127.898 -4.67285c59.9365 -11.1748 100.774 -51.8096 112.152 -111.645c4.36816 -22.7559 4.77441 -33.8291 4.77441 -139.175
s-0.40625 -116.419 -4.77441 -139.175c-11.3779 -59.6318 -51.9111 -100.165 -111.543 -111.543c-22.7559 -4.36816 -33.8291 -4.77441 -139.175 -4.77441s-116.419 0.40625 -139.175 4.77441c-59.6318 11.3779 -100.165 51.9111 -111.543 111.543
c-4.36816 22.7559 -4.77441 33.8291 -4.77441 139.175s0.40625 116.419 4.77441 139.175c11.3779 59.6318 51.9111 100.165 111.543 111.645c10.3623 1.92969 30.5781 3.86035 47.2383 4.57129zM371.81 399.34c-10.4639 1.42188 -195.251 2.13281 -217.396 0.914062
c-40.4326 -2.33691 -61.9688 -10.4639 -80.8643 -30.7812c-8.43164 -9.14258 -12.9014 -16.2539 -17.2695 -27.9365c-3.75879 -10.2598 -5.8916 -19.6064 -7.7207 -35.25c-1.92969 -16.0508 -1.92969 -212.521 0 -228.572
c2.6416 -21.7393 7.11133 -37.3838 14.5273 -49.9805c4.46973 -7.61914 21.0283 -24.1777 28.6475 -28.6475c12.5967 -7.41602 28.2412 -11.8857 49.9805 -14.5273c16.0508 -1.92969 212.521 -1.92969 228.572 0c21.7393 2.6416 37.3838 7.11133 49.9805 14.5273
c7.61914 4.46973 24.1777 21.0283 28.6475 28.6475c7.41602 12.5967 11.8857 28.2412 14.5273 49.9805c1.92969 16.0508 1.92969 212.521 0 228.572c-2.6416 21.7393 -7.11133 37.3838 -14.5273 49.9805c-4.46973 7.61914 -21.0283 24.1777 -28.6475 28.6475
c-12.0889 7.11133 -27.6318 11.6826 -48.457 14.4258zM382.477 357.892c6.09473 2.03223 16.2539 1.72754 22.2471 -0.8125c5.38477 -2.23438 13.2061 -9.85352 15.7461 -15.3398c3.25098 -6.80566 3.75879 -15.1357 1.52344 -22.3486
c-2.64062 -8.43164 -11.5801 -17.4736 -20.1143 -20.1143c-23.6689 -7.41602 -46.0186 14.9336 -38.6025 38.6025c2.4375 7.92383 11.5811 17.4736 19.2002 20.0127zM243.81 323.048c15.4414 1.625 35.9619 -0.609375 52.1143 -5.68945
c40.2285 -12.7998 72.6348 -45.2061 85.4346 -85.4346c8.12695 -26.0068 8.12695 -53.8408 0 -79.8477c-12.7998 -40.2285 -45.2061 -72.6348 -85.4346 -85.4346c-26.0068 -8.12695 -53.8408 -8.12695 -79.8477 0c-40.2285 12.7998 -72.6348 45.2061 -85.4346 85.4346
c-14.832 47.0352 -2.43848 98.0322 32.4062 132.876c21.7393 21.6387 49.6758 34.9463 80.7617 38.0957zM276.317 274.692c-8.43164 2.03125 -23.9746 2.74219 -32.4062 1.625c-20.0127 -2.84473 -40.7363 -14.6289 -53.9434 -30.6797
c-6.19629 -7.61816 -14.4248 -23.9746 -16.8633 -33.8281c-2.4375 -9.75195 -2.4375 -29.8672 0 -39.6191c1.0166 -3.86035 3.96191 -11.6826 6.70508 -17.2695c8.63477 -17.9814 21.1299 -30.375 39.1113 -39.1113c13.917 -6.70508 21.4346 -8.43164 37.0791 -8.43164
s23.1621 1.72656 37.0791 8.43164c17.9814 8.73633 30.4766 21.1299 39.1113 39.1113c6.70508 13.917 8.43164 21.5361 8.43164 37.0791s-1.72656 23.1621 -8.43164 37.0791c-5.58691 11.4795 -13.2061 21.2324 -22.5527 28.9531
c-7.61816 6.19629 -24.0762 14.4248 -33.3203 16.6602z" />
    <glyph glyph-name="uniF12E" unicode="&#xf12e;" 
d="M499.118 93.124c0 -23.1025 -18.7285 -41.8301 -41.8301 -41.8301h-400.78c-23.1016 0 -41.8301 18.7275 -41.8301 41.8301v187.906c0 23.1016 18.7285 41.8301 41.8301 41.8301h400.781c23.1016 0 41.8301 -18.7285 41.8301 -41.8301v-187.906h-0.000976562z
M262.31 229.986v14.7324h-133.945v-14.7324h54.1357v-105.165h23.2334v105.165h56.5762zM402.646 244.718h-24.9766l-42.1709 -88.3066l-43.7969 88.3066h-25.79l63.4297 -121.534h11.7334z" />
    <glyph glyph-name="uniF106" unicode="&#xf106;" 
d="M420.778 353.963l74.7812 -65.2803l-288.129 -251.463l-37.3613 32.5684l-149.589 130.589l74.7656 65.1807l112.185 -97.8779z" />
    <glyph glyph-name="uniF10F" unicode="&#xf10f;" 
d="M406.628 352.839h-14.3652v-284.729c0 -24.3916 -19.5127 -28.7998 -19.5127 -28.7998h-204.501v-18.0342c0 -25.5576 29.4111 -26.7236 29.4111 -26.7236h210.105c28.2588 0 29.3828 27.8896 29.3828 27.8896v303.688c0.0146484 26.709 -30.5205 26.709 -30.5205 26.709
zM344.106 396.843c24.875 0 25.9844 -26.7236 25.998 -26.7236v-279.083s-3.08594 -29.8945 -30.2363 -29.8945h-232.306c-27.1504 0 -28.2598 29.0273 -28.2598 29.0273v279.95c0 26.7236 27.1221 26.7236 27.1221 26.7236h237.682zM168.149 308.067
c-7.49512 0 -23.3525 -1.67773 -23.3525 -9.37207s15.8574 -13.2412 23.3525 -13.2412h112.555c7.48047 0 21.248 3.0293 21.248 10.752c0 7.67969 -13.7676 11.8613 -21.248 11.8613h-112.555zM280.847 151.666c7.50879 0 21.9443 3.64062 21.9443 11.3633
c0 7.69434 -14.4355 10.4678 -21.9443 10.4678l-113.935 0.28418c-7.49512 0 -21.2627 -3.75488 -21.2627 -11.4492c0 -7.69336 13.7676 -10.666 21.2627 -10.666h113.935zM280.847 218.34h-113.935c-7.49512 0 -21.2627 2.97168 -21.2627 10.666
s13.7676 11.4492 21.2627 11.4492l113.935 -0.28418c7.50879 0 21.9443 -2.77344 21.9443 -10.4678c0 -7.7373 -14.4355 -11.3633 -21.9443 -11.3633z" />
    <glyph glyph-name="uniF113" unicode="&#xf113;" 
d="M434.688 358.187c24.6748 0 44.7139 -20.0107 44.7285 -44.7002v-223.502c0 -24.7041 -20.0537 -44.7012 -44.7148 -44.7012h-357.604c-24.6895 0 -44.7002 20.0107 -44.7002 44.7012v223.502c0 24.6895 20.0107 44.7002 44.7002 44.7002h357.59zM211.2 111.545
l134.869 79.0186l-134.869 79.0332v-158.052z" />
    <glyph glyph-name="uniF104" unicode="&#xf104;" 
d="M436.836 9.8418c0 0 -3.99707 -37.8311 -38.5996 -37.8311h-288.91c-34.5459 0 -35.9678 36.75 -35.9678 36.75v373.148c0 33.7783 34.6025 33.7783 34.6025 33.7783h197.902l0.0849609 -127.304c2.63086 -0.511719 130.888 0 130.888 0v-278.542zM377.272 69.1484
h-237.724v-31.7012h237.724v31.7012zM377.272 131.242h-237.724v-31.7148h237.724v31.7148zM278.855 227.641v-66.0479h99.0576v66.0479h-99.0576zM140.217 194.617v-29.0703h112.242v29.0703h-112.242zM251.136 254.052h-109.61v-29.0703h109.61v29.0703zM332.004 414.094
l96.7676 -100.551h-96.7676v100.551z" />
    <glyph glyph-name="uniF112" unicode="&#xf112;" 
d="M190.165 153.33c19.4844 0 35.2852 15.0322 35.2852 33.5215c0 10.5674 -5.26172 19.8682 -13.2832 26.0127l35.4561 42.0977c2.70215 -0.639648 5.47559 -1.06641 8.37695 -1.06641c6.38574 0 12.2881 1.74902 17.4502 4.53613l60.9707 -57.9268
c-1.97656 -4.18164 -3.11426 -8.78906 -3.11426 -13.6533c0 -18.5029 15.8008 -33.5215 35.2852 -33.5215c19.499 0 35.2715 15.0322 35.2715 33.5215c0 8.63281 -3.5127 16.4121 -9.17383 22.3711l33.8496 78.7627c1.93359 -0.297852 3.89648 -0.568359 5.91602 -0.568359
c19.4707 0 35.2715 15.0039 35.2715 33.5215s-15.8008 33.5215 -35.2715 33.5215c-19.499 0 -35.2998 -15.0186 -35.2998 -33.5215c0 -10.5811 5.2627 -19.8682 13.2979 -26.0264l-36.1807 -75.4062c-2.47559 0.526367 -5.03516 0.867188 -7.68066 0.867188
c-9.38672 0 -17.8633 -3.54102 -24.1631 -9.21582l-56.3916 58.8662c3.25684 5.09082 5.24805 11.0215 5.24805 17.4072c0 18.5039 -15.8008 33.5225 -35.2852 33.5225s-35.2715 -15.0186 -35.2715 -33.5225c0 -10.7373 5.44727 -20.209 13.7393 -26.3389l-32.7539 -42.6953
c-3.64062 1.20898 -7.48145 2.00488 -11.5488 2.00488c-19.498 0 -35.2988 -15.0039 -35.2988 -33.5215s15.8008 -33.5498 35.2988 -33.5498zM445.881 62.8623h-359.012v291.954c0 12.0742 -9.78516 21.8877 -21.8594 21.8877
c-12.1172 0 -21.8877 -9.79883 -21.8877 -21.8877v-313.842c0 -12.0889 9.78418 -21.874 21.8877 -21.874h380.856c12.1182 0 21.8887 9.78516 21.8887 21.874c0.0136719 12.1025 -9.77051 21.8877 -21.874 21.8877z" />
    <glyph glyph-name="uniF12D" unicode="&#xf12d;" 
d="M499.118 93.124c0 -23.1025 -18.7285 -41.8301 -41.8301 -41.8301h-400.78c-23.1016 0 -41.8301 18.7275 -41.8301 41.8301v187.906c0 23.1016 18.7285 41.8301 41.8301 41.8301h400.781c23.1016 0 41.8301 -18.7285 41.8301 -41.8301v-187.906h-0.000976562z
M258.098 126.075l-49.373 55.1611c9.06152 1.47363 16.8828 5.22363 23.4668 11.2529c6.58105 6.02832 9.87402 12.8076 9.87402 20.3379c0 22.915 -20.4463 34.373 -61.3389 34.373c-5.11133 0 -13.2637 -0.204102 -24.4541 -0.613281
c-11.1914 -0.408203 -17.2129 -0.613281 -18.0645 -0.613281v-119.897h23.2344v52.2959c11.2285 -0.546875 19.4385 -0.819336 24.6289 -0.819336l45.4229 -51.4775h26.6035zM175.15 232.06c14.7148 0 25.4805 -1.47266 32.2959 -4.41992
c6.81445 -2.94629 10.2236 -7.77441 10.2236 -14.4854c0 -8.12988 -3.17676 -13.7773 -9.52734 -16.9414c-6.35059 -3.16504 -16.4961 -4.74707 -30.4365 -4.74707c-5.26855 0 -10.6875 0.273438 -16.2646 0.818359v38.957
c6.81543 0.544922 11.3857 0.818359 13.709 0.818359zM397.968 126.075l-64.126 121.534h-6.15723l-69.123 -121.534h26.0225l12.5469 25.2881h63.3125l11.7334 -25.2881h25.791zM353.822 163.395h-50.5352l26.3711 52.7881z" />
    <glyph glyph-name="uniF132" unicode="&#xf132;" 
d="M480.711 -31.2891h-89.5996c0 41.2441 -7.11133 81.0664 -19.9111 119.467c-49.7783 139.378 -177.778 228.978 -332.8 234.667v89.5996c210.488 0 379.733 -147.911 432.355 -347.022c4.2666 -17.0664 9.95508 -61.1553 9.95508 -96.7109zM246.045 -29.8662
c-11.3779 113.777 -88.1787 200.533 -207.645 204.8v86.7549c12.7998 0 25.5996 0 39.8223 -2.84375c103.822 -15.6445 179.199 -71.1113 226.133 -166.4c19.9111 -39.8223 27.0225 -79.6445 29.8672 -123.733c-1.42285 1.42285 -58.3115 1.42285 -88.1777 1.42285z
M39.8223 27.0225c0 32.9893 26.7432 59.7334 59.7334 59.7334c32.9893 0 59.7334 -26.7441 59.7334 -59.7334c0 -32.9902 -26.7441 -59.7334 -59.7334 -59.7334c-32.9902 0 -59.7334 26.7432 -59.7334 59.7334z" />
    <glyph glyph-name="uniF109" unicode="&#xf109;" 
d="M300.345 157.056c0 0 -39.6367 -31.417 -88.5186 0l-174.862 156.587s-0.512695 28.4023 28.2451 28.4023h383.602s28.5586 -0.583984 28.5586 -29.2979zM388.594 197.788l89.7705 86.585v-231.595s-1.86328 -26.9365 -32.2559 -26.9365h-379.989
s-30.4209 2.70215 -30.4209 28.7285v229.803l89.0303 -85.5889l-59.9463 -137.315l86.1582 107.235l55.3672 -43.2217s63.7012 -29.9805 98.375 -0.867188l55.0547 44.7998l89.3867 -115.029z" />
    <glyph glyph-name="uniF123" unicode="&#xf123;" 
d="M228.438 265.898l100.551 -72.1211l-100.551 -72.1201v144.241zM255.658 392.462c109.796 0 199.111 -89.3291 199.111 -199.11c0 -109.796 -89.3154 -199.111 -199.111 -199.111c-109.795 0 -199.11 89.3008 -199.11 199.111c0 109.781 89.3154 199.11 199.11 199.11z
M255.658 420.906c-125.682 0 -227.555 -101.888 -227.555 -227.555c0 -125.683 101.873 -227.556 227.555 -227.556c125.668 0 227.556 101.859 227.556 227.556c0 125.667 -101.888 227.555 -227.556 227.555z" />
    <glyph glyph-name="uniF126" unicode="&#xf126;" 
d="M122.609 131.101c66.0908 199.054 227.158 181.547 227.158 181.547v72.9736l138.666 -122.24l-137.955 -135.296v75.8477c-158.649 4.9209 -227.869 -72.832 -227.869 -72.832zM167.068 277.504l-37.7031 -50.29l-55.6377 0.426758v-176h276.751l-0.554688 29.2979
l49.1377 44.1885l1.19434 -122.083h-375.708l-0.597656 274.375z" />
    <glyph glyph-name="uniF10D" unicode="&#xf10d;" 
d="M462.521 376.633c0 0 -26.2676 10.3682 -43.2354 -5.41895l-96.3691 -76.8711l-53.5049 19.3145l24.1494 33.3936c6.64258 8.77539 -9.28711 12.6152 -9.28711 12.6152c-11.0645 4.56543 -22.6699 -7.28223 -22.6699 -7.28223l-26.6094 -27.25l-69.248 12.2744
l19.3135 24.4336c10.1689 12.9277 -2.98633 19.2715 -2.98633 19.2715c-11.4775 3.31348 -26.8945 -5.20605 -26.8945 -5.20605l-26.7383 -28.7715l-64.4404 2.17578s-12.8857 8.36328 -18.418 -3.05762c0 0 -5.04883 -11.9033 6.11621 -16.4121
c29.084 -15.7012 188.074 -94.6777 188.074 -94.6777l-126.421 -105.912l-45.4121 10.3965s-9.48633 0.852539 -13.5391 -6.79883c0 0 -19.4277 -11.9746 -3.84082 -24.6758c8.37695 -8.60449 35.1865 -12.1172 48.1709 -25.3291
c20.167 -20.5088 26.1836 -50.4326 26.1836 -50.4326c9.75586 -11.6758 22.585 1.28027 22.585 1.28027l11.3633 11.79l-10.041 39.1113l141.341 110.137l85.916 -186.325s21.4619 -14.4209 14.123 32.3984l-3.32812 30.4785l37.2334 28.1455
s15.8154 11.2637 8.2207 28.7852c-4.90625 8.17773 -19.2432 -0.0849609 -19.2432 -0.0849609l-28.7715 -12.6289l-3.66895 50.958l36.4941 21.7881s16.8965 19.1436 6.89746 31.0898c-10.8652 8.40527 -24.0068 2.21875 -24.0068 2.21875l-34.5029 -8.49023
l-4.50879 42.4248l98.333 85.1904c0.0283203 0.0146484 12.3018 16.9102 3.1709 35.9541z" />
    <glyph glyph-name="uniF11C" unicode="&#xf11c;" 
d="M315.292 121.202v0.0136719h-83.1426l-105.415 -77.625l-20.4805 77.625l-33.6777 0.981445c-29.085 0 -52.6797 21.0918 -52.6797 48.3271v153.856c0 27.2354 23.5947 49.2793 52.6797 49.2793h242.716c29.1416 0 52.6934 -22.0439 52.6934 -49.2793v-153.856
c0 -27.2354 -23.5518 -49.3223 -52.6934 -49.3223zM441.458 307.954l-41.8564 -21.7744l-0.199219 -166.4c0 -30.8623 -28.2168 -30.8623 -28.2168 -30.8623l-128.568 -0.212891l-29.5117 -10.9082h68.8213l105.387 -83.584l20.4658 67.7832l33.6641 15.8008
c29.085 0 52.665 22.1006 52.665 49.2939v131.513c0.0146484 27.2783 -23.5664 49.3516 -52.6504 49.3516z" />
    <glyph glyph-name="uniF130" unicode="&#xf130;" 
d="M256 392.533c109.511 0 199.111 -89.5996 199.111 -199.111c0 -109.511 -89.6006 -199.11 -199.111 -199.11s-199.111 89.5996 -199.111 199.11c0 109.512 89.6006 199.111 199.111 199.111zM256 420.978c-125.155 0 -227.556 -102.399 -227.556 -227.556
c0 -125.155 102.4 -227.556 227.556 -227.556s227.556 102.4 227.556 227.556c0 125.156 -102.4 227.556 -227.556 227.556zM182.045 120.889v149.334h149.333v-149.334h-149.333z" />
    <glyph glyph-name="uniF131" unicode="&#xf131;" 
d="M468.622 196.978c0 -118.044 -95.2891 -213.333 -213.333 -213.333c-118.045 0 -213.334 95.2891 -213.334 213.333c0 118.045 95.2891 213.334 213.334 213.334c118.044 0 213.333 -95.2891 213.333 -213.334zM282.312 378.312l-49.0674 -12.0889l-29.1553 -6.40039
l-24.1777 -1.42188l-25.5996 -6.40039l-13.5117 -12.0889l-9.95508 -25.5996l-6.40039 -23.4668l-5.68848 -29.1562l2.13281 -26.3105l6.40039 -49.7783l13.5107 -24.1777l35.5557 -22.0439l39.1113 -15.6445l27.7334 -9.95605l8.5332 -3.55469l4.2666 -24.8896
l-7.11133 -14.9326l5.68945 -16.3555l12.0889 -9.95605l11.3779 -7.82227l9.95508 -14.2217l2.13379 -9.95605l24.1777 9.95605l17.7773 19.9102l29.8662 34.1338l11.3779 15.6445l3.55566 14.2217v9.95605l-5.68848 9.95508l-16.3555 5.68945h-26.3115h-17.7773
l-19.9111 -2.13379l-26.3115 -4.2666l-21.333 2.13379l-9.95605 6.39941l-13.5107 11.3779l-7.82227 14.2227l-15.6445 15.6445l-9.95508 11.3779l7.82227 11.377h9.95508h16.3555l9.95605 -1.42188l6.39941 -4.2666l5.68945 -9.95508l3.55566 -8.53418l6.39941 -4.2666
l5.68945 7.82227l-3.55566 14.2227l2.13281 14.2217l4.2666 14.2227l3.55566 12.0889l6.40039 13.5107l7.82227 15.6445l9.95508 8.5332l9.95605 13.5117l13.5107 4.2666l12.0889 11.3779l-8.5332 8.5332h-14.2227l-17.7773 8.5332l-15.6445 7.82227l-7.82227 -5.68945
l-5.68848 -8.5332l-4.2666 -8.5332l-7.82227 -11.3779l4.2666 -12.0889l-7.82227 -8.5332l-4.2666 10.667l-3.55566 16.3555l-6.40039 12.0889l-6.39941 17.7773l4.2666 7.82227l19.1992 7.82227l16.3564 2.13379l23.4658 -2.13379l19.2002 4.2666l14.2227 8.53418
l-12.0889 14.2217z" />
    <glyph glyph-name="uniF118" unicode="&#xf118;" 
d="M162.873 259.584c14.7061 0 26.6807 -10.9512 26.667 -24.5615v-212.864c0 -13.5684 -11.9609 -24.5615 -26.667 -24.5615h-121.174c-14.7051 0 -26.666 11.0078 -26.666 24.5615v212.864c0 13.6104 11.9463 24.5615 26.666 24.5615h121.174zM68.4229 22.1729h-0.0136719
v49.1094h-26.667v-49.1094h26.6807zM68.4229 95.8857h-0.0136719v49.1094h-26.667v-49.1094h26.6807zM68.4229 169.529h-0.0136719v49.123h-26.667v-49.123h26.6807zM121.785 95.8857v49.1094h-26.667v-49.1094h26.667zM121.785 169.529v49.123h-26.667v-49.123h26.667z
M175.146 22.1729v49.1094h-26.6953v-49.1094h26.6953zM175.146 95.8857v49.1094h-26.6953v-49.1094h26.6953zM175.146 169.529v49.123h-26.6953v-49.123h26.6953zM467.001 390.585c14.7197 0 28.3164 -10.9512 28.3164 -24.5615v-343.865
s-10.2402 -24.5615 -24.9883 -24.5615h-211.044s-26.666 11.0078 -26.666 24.5615v343.865c0 13.6104 11.9033 24.5615 26.666 24.5615h207.716zM308.565 22.1729v49.1094h-53.333v-49.1094h53.333zM308.565 95.8857v49.1094h-53.333v-49.1094h53.333zM308.565 169.529
v49.123h-53.333v-49.123h53.333zM308.565 243.229v49.1094h-53.333v-49.1094h53.333zM308.565 316.899v49.124h-53.333v-49.124h53.333zM388.622 95.8857v49.1094h-53.3896v-49.1094h53.3896zM388.622 169.529v49.123h-53.3896v-49.123h53.3896zM388.622 243.229v49.1094
h-53.3896v-49.1094h53.3896zM388.622 316.899v49.124h-53.3896v-49.124h53.3896zM468.622 22.1729v49.1094h-53.3047v-49.1094h53.3047zM468.622 95.8857v49.1094h-53.3047v-49.1094h53.3047zM468.622 169.529v49.123h-53.3047v-49.123h53.3047zM468.622 243.229v49.1094
h-53.3047v-49.1094h53.3047zM468.622 316.899v49.124h-53.3047v-49.124h53.3047z" />
    <glyph glyph-name="uniF11D" unicode="&#xf11d;" 
d="M492.288 40.7891c3.3418 -39.9072 -47.502 -88.9453 -86.3008 -85.7168l-136.319 135.495c-116.097 -51.8975 -249.7 32.6396 -249.7 160.824c0 97.124 79.5596 176.157 177.295 176.157c131.1 0 215.979 -136.719 159.843 -252.459zM322.375 250.966
c0 69.2188 -56.1064 125.326 -125.326 125.326s-125.326 -56.1074 -125.326 -125.326c0 -69.2197 56.1064 -125.327 125.326 -125.327s125.326 56.1074 125.326 125.327z" />
    <glyph glyph-name="uniF11F" unicode="&#xf11f;" 
d="M318.123 242.802c18.5029 -8.43359 38.2861 -22.5 53.5176 -45.9951l35.8115 -95.4307v-46.8623c0 -27.4492 -28.6152 -28.6572 -28.6152 -28.6572h-244.693c-29.8232 0 -27.5049 28.6572 -27.5049 28.6572v49.2656c-0.512695 -8.94531 33.4932 93.3408 33.4932 93.3408
c11.1787 22.6846 33.1514 36.5508 55.3672 45.042v14.9043s-1.22363 26.3682 26.7236 26.3682h68.7637s27.9189 0.469727 27.9189 -28.6152zM443.122 298.966l-28.6152 16s-38.8838 27.0791 -150.613 27.0791h-17.1807c-88.1348 0 -147.214 -27.0791 -147.214 -27.0791
l-28.5869 -16c-35.2139 -19.1152 -16.8389 -51.2861 -16.8389 -51.2861l16.7539 -35.1709l97.792 51.5977s-8.80371 15.8721 -11.6631 23.2109c-3.14258 5.90234 -0.910156 4.6084 1.22363 5.95898c0 0 45.5254 20.1533 88.5332 20.1533h20.6221
s62.6914 0.0566406 89.0029 -23.2822c2.88672 -2.57422 2.77344 1.7207 0.611328 -3.68359c-4.49414 -11.5195 -11.5479 -22.3857 -11.5479 -22.3857l96.6396 -51.5977l17.9199 35.1709c0 0.0429688 18.3896 32.1992 -16.8389 51.3145z" />
    <glyph glyph-name="uniF10B" unicode="&#xf10b;" 
d="M204.089 -45.2266v223.218h-66.8584v82.5459h66.8301v66.5176c0 53.9443 29.3691 103.48 111.673 103.48c33.3506 0 57.998 -3.12891 57.998 -3.12891l-1.96289 -75.0508s-25.1162 0.255859 -52.5508 0.255859c-52.9062 0 -47.1748 -39.2529 -47.1748 -39.2812v-52.7793
h102.13l-3.91113 -82.5459h-98.2051v-223.231h-67.9678z" />
    <glyph glyph-name="uniF12F" unicode="&#xf12f;" 
d="M416.697 362.026c0 0 30.6348 0 30.6201 -26.5811v-335.274s-1.1377 -27.7197 -29.4971 -27.7197h-240.085s-29.4541 1.1377 -29.4541 26.5674v37.3906h214.854s19.5557 7.15332 19.5557 31.4023v294.215h34.0059zM352.1 97.5498
c0 0 -3.15723 -29.7383 -30.3643 -29.7383h-227.328c-27.207 0 -28.3164 28.8994 -28.3164 28.8994v293.618c0 26.5674 27.207 26.5674 27.207 26.5674h232.718c24.9316 0 26.084 -26.5674 26.084 -26.5674v-292.779zM288 305.337v0
c0 8.09277 -6.57031 14.6631 -14.6777 14.6631h-125.326c-8.0918 0 -14.6631 -6.57031 -14.6484 -14.6631v0c0 -8.09277 6.55664 -14.6631 14.6631 -14.6631h125.326c8.09277 0 14.6631 6.55664 14.6631 14.6631zM286.223 183.552v0
c0 8.10645 -6.57129 14.6777 -14.6631 14.6631h-125.327c-8.0918 0 -14.6631 -6.55664 -14.6631 -14.6631v0c0 -8.0918 6.55664 -14.6631 14.6631 -14.6631h125.327c8.0918 0 14.6631 6.55664 14.6631 14.6631zM287.118 244.893v0
c0 8.09277 -6.57031 14.6631 -14.6631 14.6631h-125.326c-8.09277 0 -14.6631 -6.55664 -14.6631 -14.6631v0c0 -8.09277 6.55664 -14.6631 14.6631 -14.6631h125.326c8.09277 0 14.6631 6.55664 14.6631 14.6631z" />
    <glyph glyph-name="uniF122" unicode="&#xf122;" 
d="M266.026 396.046c-119.765 0 -180.152 -79.5869 -180.152 -145.977c0 -40.1777 16.3984 -75.9756 51.6406 -89.2725c5.77441 -2.17676 10.9365 -0.0712891 12.6006 5.84473c1.18066 4.13867 3.92578 14.4639 5.12012 18.7734
c1.69238 5.8457 1.05273 7.93652 -3.59766 13.0137c-10.1553 11.0645 -16.6689 25.4717 -16.6689 45.8379c0 59.0508 47.6875 111.915 124.117 111.915c67.6699 0 104.89 -38.3154 104.89 -89.543c0 -67.3711 -32.1855 -124.231 -79.9434 -124.231
c-26.3545 0 -46.0947 20.1953 -39.7656 45.0137c7.58008 29.624 22.2432 61.5391 22.2432 82.915c0 19.1436 -11.0645 35.1006 -34.0049 35.1006c-26.9365 0 -48.5693 -25.8418 -48.5693 -60.5156c0 -22.0303 8.00781 -36.9639 8.00781 -36.9639
s-27.5918 -108.358 -32.4131 -127.331c-9.59961 -37.7891 -1.46484 -84.1387 -0.739258 -88.7754c0.383789 -2.78711 4.23828 -3.45605 5.97363 -1.36523c2.48828 3.01465 34.5879 39.7793 45.4971 76.501c3.08594 10.3545 17.7627 64.1992 17.7627 64.1992
c8.71875 -15.4873 34.3047 -29.127 61.583 -29.127c81.0098 0 135.964 68.4658 135.964 160.171c0 69.29 -63.3027 133.816 -159.545 133.816z" />
    <glyph glyph-name="uniF12C" unicode="&#xf12c;" 
d="M36.3516 233.334v67.8652c19.1172 6.37207 35.208 15.1338 48.2705 26.2852c13.0635 10.5146 23.7373 24.2148 32.0215 41.1016c8.28418 16.249 13.8594 36.4814 16.7266 60.6963h68.3428v-120.915h113.268v-75.0332h-113.268v-122.349
c0 -27.4004 1.43359 -45.2432 4.30176 -53.5264c2.86719 -7.64746 8.28418 -13.8604 16.249 -18.6387c10.833 -6.37305 22.9404 -9.55859 36.3223 -9.55859c24.5332 0 48.5889 7.80566 72.167 23.418v-75.0332c-20.0732 -9.87695 -38.5527 -16.7275 -55.4395 -20.5508
c-16.5684 -3.82422 -34.4111 -5.73535 -53.5283 -5.73535c-21.665 0 -41.1006 2.70801 -58.3057 8.125c-17.5244 6.05371 -31.7021 14.0186 -42.5352 23.8955c-11.4707 9.87695 -19.7539 20.71 -24.8525 32.499c-4.45996 10.833 -6.69043 27.5596 -6.69043 50.1816v167.272
h-53.0498z" />
    <glyph glyph-name="uniF108" unicode="&#xf108;" 
d="M258.574 431.417l179.868 -167.097h-359.723zM258.574 -48.1709l-179.854 166.998h359.723z" />
    <glyph glyph-name="uniF11B" unicode="&#xf11b;" 
d="M469.746 432.867h-426.255c-13.8662 0 -25.0879 -11.207 -25.0879 -25.0879v-75.2354c0 -13.8096 11.2217 -25.0449 25.0879 -25.0449h426.255c13.8379 0 25.0596 11.2354 25.0596 25.0449v75.2354c0 13.8809 -11.2217 25.0879 -25.0596 25.0879zM469.746 257.352
h-426.255c-13.8662 0 -25.0879 -11.2646 -25.0879 -25.0742v-75.2354c0 -13.8672 11.2217 -25.0742 25.0879 -25.0742h426.255c13.8379 0 25.0596 11.207 25.0596 25.0742v75.2354c0 13.7959 -11.2217 25.0742 -25.0596 25.0742zM469.746 81.835h-426.255
c-13.8662 0 -25.0879 -11.2217 -25.0879 -25.0596v-75.2354c0 -13.9102 11.2217 -25.0459 25.0879 -25.0459h426.255c13.8379 0 25.0596 11.1357 25.0596 25.0459v75.2354c0 13.8379 -11.2217 25.0596 -25.0596 25.0596z" />
    <glyph glyph-name="uniF120" unicode="&#xf120;" 
d="M479.9 341.148c8.2207 0 14.877 -6.8125 14.877 -15.2031v-286.507c0 -8.3916 -6.65625 -15.1758 -14.877 -15.1758h-446.421c-8.23535 0 -14.9053 6.78418 -14.9053 15.1758v286.507c0 8.39062 6.66992 15.2031 14.9053 15.2031h106.282
c5.58984 18.6455 22.4004 32.2988 42.5107 32.2988h148.821c20.0957 0 36.9346 -13.668 42.5244 -32.2988h106.282zM79.7725 252.018c16.4551 0 29.7676 10.1836 29.7676 22.7695c0 12.5869 -13.3125 22.7988 -29.7676 22.7988s-29.7529 -10.2256 -29.7529 -22.7988
c0 -12.5723 13.2979 -22.7695 29.7529 -22.7695zM359.993 173.341v0c0 55.9639 -45.3545 101.318 -101.334 101.333v0c-55.9639 0 -101.333 -45.3691 -101.333 -101.333v0c0 -55.9648 45.3691 -101.334 101.333 -101.334v0c55.9648 0 101.334 45.3691 101.334 101.334z
M320 172.886c0 -34.1191 -27.6621 -61.7822 -61.7812 -61.7822v0c-34.1191 0 -61.7812 27.6631 -61.7812 61.7822v0c0 34.1191 27.6621 61.7812 61.7812 61.7812v0c34.1191 0 61.7812 -27.6621 61.7812 -61.7812v0z" />
    <glyph glyph-name="uniF102" unicode="&#xf102;" 
d="M266.425 193.692l-173.497 143.985c-21.3047 17.6357 -21.3047 46.2227 0 63.9717l19.2148 15.8867c21.4326 17.7637 55.8506 17.7637 77.1836 0l212.096 -175.829l19.2148 -16.0713c21.3184 -17.6787 21.3184 -46.2646 0 -63.9004l-231.325 -192.128
c-21.3184 -17.707 -55.751 -17.707 -77.1836 0l-19.2139 16.0703c-21.3047 17.6934 -21.3047 46.3369 0 64.0146z" />
    <glyph glyph-name="uniF124" unicode="&#xf124;" 
d="M257.55 431.844c131.243 0 237.597 -106.411 237.597 -237.597c0 -131.2 -106.354 -237.582 -237.597 -237.582c-131.186 0 -237.596 106.382 -237.596 237.582c0 131.186 106.41 237.597 237.596 237.597zM361.699 52.2666l-20.0957 112.327l82.2754 79.1182
l-113.052 15.6016l-49.7783 102.685l-49.792 -102.685l-113.053 -15.6016l82.2764 -79.1182l-20.082 -112.327l100.65 53.8594z" />
  </font>
</defs>
</svg>
